<mxfile host="Electron" agent="Mozilla/5.0 (Windows NT 10.0; Win64; x64) AppleWebKit/537.36 (KHTML, like Gecko) draw.io/24.7.8 Chrome/128.0.6613.36 Electron/32.0.1 Safari/537.36" version="24.7.8">
  <diagram name="Page-1" id="myt_x5N6EYknn8tsjSJt">
    <mxGraphModel dx="1036" dy="1706" grid="1" gridSize="10" guides="1" tooltips="1" connect="1" arrows="1" fold="1" page="1" pageScale="1" pageWidth="850" pageHeight="1100" math="0" shadow="0">
      <root>
        <mxCell id="0" />
        <mxCell id="1" parent="0" />
        <mxCell id="_Pr8E08PzbUdKEKPz8hQ-20" value="Halaman Login" style="whiteSpace=wrap;strokeWidth=2;" vertex="1" parent="1">
          <mxGeometry x="272" y="20" width="120" height="33" as="geometry" />
        </mxCell>
        <mxCell id="_Pr8E08PzbUdKEKPz8hQ-21" value="Apakah pengguna terdaftar?" style="rhombus;strokeWidth=2;whiteSpace=wrap;" vertex="1" parent="1">
          <mxGeometry x="174" y="211" width="251" height="251" as="geometry" />
        </mxCell>
        <mxCell id="_Pr8E08PzbUdKEKPz8hQ-22" value="Masukkan Kata Sandi" style="whiteSpace=wrap;strokeWidth=2;" vertex="1" parent="1">
          <mxGeometry x="220" y="720" width="164" height="33" as="geometry" />
        </mxCell>
        <mxCell id="_Pr8E08PzbUdKEKPz8hQ-23" value="Daftar Akun Baru" style="whiteSpace=wrap;strokeWidth=2;" vertex="1" parent="1">
          <mxGeometry x="600" y="320" width="136" height="33" as="geometry" />
        </mxCell>
        <mxCell id="_Pr8E08PzbUdKEKPz8hQ-24" value="Kata Sandi Benar?" style="rhombus;strokeWidth=2;whiteSpace=wrap;" vertex="1" parent="1">
          <mxGeometry x="174" y="960" width="176" height="176" as="geometry" />
        </mxCell>
        <mxCell id="_Pr8E08PzbUdKEKPz8hQ-40" style="edgeStyle=orthogonalEdgeStyle;rounded=0;orthogonalLoop=1;jettySize=auto;html=1;exitX=0.5;exitY=1;exitDx=0;exitDy=0;" edge="1" parent="1" source="_Pr8E08PzbUdKEKPz8hQ-25" target="_Pr8E08PzbUdKEKPz8hQ-39">
          <mxGeometry relative="1" as="geometry" />
        </mxCell>
        <mxCell id="_Pr8E08PzbUdKEKPz8hQ-25" value="Beranda Perpustakaan" style="whiteSpace=wrap;strokeWidth=2;" vertex="1" parent="1">
          <mxGeometry x="160" y="1380" width="174" height="33" as="geometry" />
        </mxCell>
        <mxCell id="_Pr8E08PzbUdKEKPz8hQ-26" value="Tampilkan Pesan Kesalahan" style="whiteSpace=wrap;strokeWidth=2;" vertex="1" parent="1">
          <mxGeometry x="640" y="1031.5" width="210" height="33" as="geometry" />
        </mxCell>
        <mxCell id="_Pr8E08PzbUdKEKPz8hQ-27" value="" style="curved=0;startArrow=none;endArrow=block;exitX=0.24;exitY=1.01;entryX=0.5;entryY=0;rounded=0;" edge="1" parent="1" source="_Pr8E08PzbUdKEKPz8hQ-20" target="_Pr8E08PzbUdKEKPz8hQ-21">
          <mxGeometry relative="1" as="geometry">
            <Array as="points">
              <mxPoint x="301" y="100" />
            </Array>
          </mxGeometry>
        </mxCell>
        <mxCell id="_Pr8E08PzbUdKEKPz8hQ-28" value="Ya" style="curved=0;startArrow=none;endArrow=block;exitX=0.5;exitY=1;entryX=0.5;entryY=0;rounded=0;exitDx=0;exitDy=0;" edge="1" parent="1" source="_Pr8E08PzbUdKEKPz8hQ-21" target="_Pr8E08PzbUdKEKPz8hQ-22">
          <mxGeometry relative="1" as="geometry">
            <Array as="points" />
          </mxGeometry>
        </mxCell>
        <mxCell id="_Pr8E08PzbUdKEKPz8hQ-29" value="Tidak" style="curved=0;startArrow=none;endArrow=block;exitX=1;exitY=0.5;entryX=0;entryY=0.5;rounded=0;exitDx=0;exitDy=0;entryDx=0;entryDy=0;entryPerimeter=0;" edge="1" parent="1" source="_Pr8E08PzbUdKEKPz8hQ-21" target="_Pr8E08PzbUdKEKPz8hQ-23">
          <mxGeometry relative="1" as="geometry">
            <Array as="points" />
          </mxGeometry>
        </mxCell>
        <mxCell id="_Pr8E08PzbUdKEKPz8hQ-30" value="" style="curved=0;startArrow=none;endArrow=block;exitX=0.26;exitY=1.01;entryX=0.5;entryY=0;rounded=0;" edge="1" parent="1" source="_Pr8E08PzbUdKEKPz8hQ-22" target="_Pr8E08PzbUdKEKPz8hQ-24">
          <mxGeometry relative="1" as="geometry">
            <Array as="points" />
          </mxGeometry>
        </mxCell>
        <mxCell id="_Pr8E08PzbUdKEKPz8hQ-31" value="Ya" style="curved=0;startArrow=none;endArrow=block;entryX=0.586;entryY=0;rounded=0;exitX=0.5;exitY=1;exitDx=0;exitDy=0;entryDx=0;entryDy=0;entryPerimeter=0;" edge="1" parent="1" source="_Pr8E08PzbUdKEKPz8hQ-24" target="_Pr8E08PzbUdKEKPz8hQ-25">
          <mxGeometry relative="1" as="geometry">
            <Array as="points">
              <mxPoint x="262" y="1260" />
              <mxPoint x="262" y="1320" />
            </Array>
            <mxPoint x="270" y="1140" as="sourcePoint" />
          </mxGeometry>
        </mxCell>
        <mxCell id="_Pr8E08PzbUdKEKPz8hQ-32" value="Tidak" style="curved=0;startArrow=none;endArrow=block;exitX=1;exitY=0.5;entryX=0;entryY=0.5;rounded=0;exitDx=0;exitDy=0;entryDx=0;entryDy=0;" edge="1" parent="1" source="_Pr8E08PzbUdKEKPz8hQ-24" target="_Pr8E08PzbUdKEKPz8hQ-26">
          <mxGeometry relative="1" as="geometry">
            <Array as="points" />
          </mxGeometry>
        </mxCell>
        <mxCell id="_Pr8E08PzbUdKEKPz8hQ-33" value="" style="curved=0;startArrow=none;endArrow=block;exitX=0.53;exitY=0;entryX=1;entryY=0.5;rounded=0;entryDx=0;entryDy=0;" edge="1" parent="1" source="_Pr8E08PzbUdKEKPz8hQ-26" target="_Pr8E08PzbUdKEKPz8hQ-22">
          <mxGeometry relative="1" as="geometry">
            <Array as="points">
              <mxPoint x="750" y="740" />
              <mxPoint x="650" y="740" />
            </Array>
          </mxGeometry>
        </mxCell>
        <mxCell id="_Pr8E08PzbUdKEKPz8hQ-34" value="" style="curved=0;startArrow=none;endArrow=block;exitX=0.447;exitY=-0.03;entryX=0.983;entryY=0.606;rounded=0;entryDx=0;entryDy=0;exitDx=0;exitDy=0;exitPerimeter=0;entryPerimeter=0;" edge="1" parent="1" source="_Pr8E08PzbUdKEKPz8hQ-23" target="_Pr8E08PzbUdKEKPz8hQ-20">
          <mxGeometry relative="1" as="geometry">
            <Array as="points">
              <mxPoint x="660" y="40" />
              <mxPoint x="453" y="40" />
            </Array>
          </mxGeometry>
        </mxCell>
        <mxCell id="_Pr8E08PzbUdKEKPz8hQ-38" style="edgeStyle=orthogonalEdgeStyle;rounded=0;orthogonalLoop=1;jettySize=auto;html=1;exitX=0.5;exitY=1;exitDx=0;exitDy=0;exitPerimeter=0;entryX=0.5;entryY=0;entryDx=0;entryDy=0;" edge="1" parent="1" source="_Pr8E08PzbUdKEKPz8hQ-37" target="_Pr8E08PzbUdKEKPz8hQ-20">
          <mxGeometry relative="1" as="geometry" />
        </mxCell>
        <mxCell id="_Pr8E08PzbUdKEKPz8hQ-37" value="Mulai" style="strokeWidth=2;html=1;shape=mxgraph.flowchart.start_1;whiteSpace=wrap;" vertex="1" parent="1">
          <mxGeometry x="282" y="-130" width="100" height="70" as="geometry" />
        </mxCell>
        <mxCell id="_Pr8E08PzbUdKEKPz8hQ-39" value="Selesai" style="strokeWidth=2;html=1;shape=mxgraph.flowchart.start_1;whiteSpace=wrap;" vertex="1" parent="1">
          <mxGeometry x="197" y="1520" width="100" height="60" as="geometry" />
        </mxCell>
      </root>
    </mxGraphModel>
  </diagram>
</mxfile>
